<svg width="496" height="496" viewBox="0 0 496 496" fill="none" xmlns="http://www.w3.org/2000/svg">
<path d="M311.962 57.9902C315.213 58.0156 316.423 58.6565 318.627 60.9406C320.631 69.0552 320.242 70.571 319.269 79.0069C317.856 91.2473 316.646 100.779 309.415 111.173C326.527 130.375 338.784 156.116 339.217 182.13C339.831 188.55 337.511 195.685 337.117 201.708C337.087 202.158 346.662 218.094 347.897 218.923C355.441 223.983 364.493 222.529 371.801 219.162C385.306 212.941 377.445 202.518 385.742 192.686C390.379 187.181 395.144 186.156 401.87 185.348C408.761 175.774 415.485 151.433 425.645 146.024C428.781 144.334 432.47 143.999 435.86 145.095C444.14 147.789 445.135 155.199 444.84 162.703C444.531 170.453 441.462 177.138 439.02 184.36C447.521 186.242 451.307 192.724 451.712 200.953C459.571 205.563 462.994 209.521 462.528 219.084C462.068 228.501 457.254 231.809 451.795 238.371C449.166 241.53 447.036 247.39 443.294 250.379C440.944 252.254 438.483 253.276 436.135 255.09C434.551 256.53 435.259 263.253 434.983 265.9C434.132 273.851 433.446 278.37 427.937 284.124C423.234 289.034 415.452 284.849 414.352 287.491C411.842 293.518 409.588 298.061 404.485 302.476C398.467 307.681 390.853 308.362 385.328 301.933C379.779 305.984 373.785 310.409 366.905 311.688C365.477 311.952 363.829 311.96 362.427 312.057C361.708 312.106 357.37 312.244 357.211 312.765C356.403 315.435 355.899 318.847 355.337 321.55C353.4 330.858 351.245 340.084 348.214 349.097C343.943 359.587 338.566 368.929 331.694 377.92C330.506 379.474 326.872 383.528 326.131 384.911C322.204 392.235 318.795 396.9 313.13 403.032C318.365 405.377 320.738 406.382 325.582 409.835C331.802 414.269 335.191 420.058 336.676 427.559C337.379 431.111 335.797 436.076 333.565 438.914C330.024 443.414 324.441 444.081 319.087 444.726C312.21 461.025 289.124 447.349 278.291 443.943C270.636 441.535 262.392 441.4 256.641 434.872C251.741 429.314 253.006 423.745 253.434 417.209C249.566 417.024 244.925 418.281 241.029 418.62C235.099 419.132 229.095 419.433 223.152 419.755C223.429 420.846 223.635 421.951 223.771 423.07C224.604 430.226 222.679 436.233 218.06 441.78C210.059 451.386 200.507 464.018 186.374 462.056C181.998 461.449 179.73 459.239 176.485 456.575C165.624 458.867 153.184 456.564 152.066 443.02C150.981 429.879 161.334 422.582 168.93 413.949C165.933 410.488 163.258 406.176 160.443 403.191C157.616 400.676 153.404 398.675 150.481 396.484C147.447 394.211 141.014 389.615 139.159 386.465C131.577 390.822 124.508 391.827 115.84 391.232C113.219 390.995 108.136 390.163 106.028 388.612C101.56 385.327 99.8336 385.776 94.6091 385.203C86.7067 384.335 82.7167 380.926 77.6826 375.107C70.8937 373.368 62.4802 372.227 58.0167 366.124C49.3017 354.203 67.4779 349.064 75 344.231C71.7545 341.528 68.1332 338.006 66.7323 333.933C63.1013 323.371 70.7664 320.103 78.8578 317.56C77.5905 314.173 75.1932 310.161 74.3946 306.692C67.827 278.147 84.3124 252.949 100.381 231.039C103.158 227.253 106.704 222.284 108.859 218.29C107.536 212.744 105.525 208.563 104.538 202.385C102.276 188.237 103.095 173.38 106.461 159.481C108.068 152.844 110.361 146.358 112.526 139.976C110.555 136.127 106.898 132.972 104.865 129.272C100.501 122.13 87.9798 98.7322 99.2343 93.5242C113.275 87.0269 140.867 86.8927 155.393 90.7042C158.025 89.9087 160.793 88.2443 163.354 87.114C179.655 79.898 197.293 76.4676 215.072 76.3163C229.535 76.1932 243.413 79.5566 257.403 82.8655C260.934 81.6781 264.958 77.9801 268.401 75.8845C279.713 69.0001 298.845 58.845 311.962 57.9902Z" fill="black"/>
<path d="M310.368 67.0371C310.443 67.0928 310.614 67.4215 310.671 67.5204C309.916 78.66 309.401 89.696 305.135 100.245C303.535 104.199 300.702 107.91 297.899 111.099C305.995 119.481 312.901 128.934 318.428 139.194C328.478 157.716 333.504 181.555 327.32 202.101C331.674 207.181 338.792 219.592 341.112 225.69C349.489 247.702 352.421 271.328 350.847 294.761C350.395 301.493 349.1 308.357 347.932 315.05C345.179 330.845 341.6 346.698 333.283 360.613C331.093 363.529 328.944 368.092 326.477 370.718C319.919 377.701 316.028 387.194 309.803 394.14C298.511 406.733 287.72 407.615 271.738 408.232C277.175 405.529 281.912 400.726 284.97 395.518C281.84 396.805 277.213 399.379 273.909 400.916C266.113 404.542 257.922 407.248 249.501 408.984C244.125 410.117 238.019 410.889 232.516 411.296C228.86 411.566 224.417 410.883 220.863 411.682C218.838 412.14 215.496 414.267 213.613 414.931C205.489 417.797 192.491 417.248 184.65 413.763C179.708 411.748 173.124 407.372 170.559 402.498C167.469 396.623 166.82 396.843 161.15 393.495C158.524 391.958 155.971 390.299 153.497 388.527C138.557 377.69 131.145 364.041 124.221 347.53C125.991 346.188 127.418 344.995 129.105 343.559C143.372 331.429 151.298 307.506 152.15 288.991C152.754 283.593 152.773 260.92 148.205 258.407C148.039 258.474 147.833 258.481 147.708 258.607C146.611 259.719 146.832 279.027 146.668 281.887C145.921 295.006 143.228 309.335 137.334 321.181C132.492 330.914 123.823 341.757 113.211 345.248C104.722 348.043 95.6146 346.973 87.7199 342.934C81.0865 339.542 76.0601 335.769 73.7363 328.528C77.4478 326.535 83.1912 325.014 87.4042 324.709C89.2275 326.591 95.867 332.162 98.4986 330.448C98.6501 329.669 98.2814 328.139 97.7882 327.682C64.5094 296.911 89.4653 259.702 110.592 231.288C112.635 228.539 118.027 221.616 118.927 218.557C118.565 216.946 117.997 215.004 117.352 213.429C108.89 192.756 112.196 170.49 118.457 149.763C119.636 145.858 121.631 141.762 123.206 138.011C112.47 125.355 107.642 117.386 103.535 101.18C119.7 95.8547 139.76 94.4797 155.96 100.018C159.783 98.7219 166.721 95.2289 170.934 93.4993C183.633 88.2119 197.12 85.0618 210.848 84.1758C227.84 83.0406 244.833 86.1011 261.076 90.914C263.301 91.5734 271.783 94.9377 272.962 92.971C272.548 90.081 268.557 88.8143 266.177 87.9697C279.963 79.0001 294.276 71.0875 310.368 67.0371Z" fill="#484944"/>
<path d="M221.229 244.157C228.022 251.565 241.33 256.824 251.398 255.796C259.806 254.887 267.523 250.72 272.896 244.19C274.671 242.045 276.035 239.598 277.812 237.441L277.999 237.217C281.466 239.616 283.883 241.231 288.002 242.512C297.638 245.51 307.751 242.935 316.428 238.274C325.786 255.426 328.589 278.768 327.112 298.063C326.941 299.837 326.789 302.199 326.395 303.883C324.836 321.063 319.534 337.186 309.179 351.14C296.34 368.754 276.941 380.443 255.369 383.568C235.883 386.345 214.524 379.572 198.829 367.911C183.968 356.872 173.737 337.985 170.518 319.868C169.606 314.734 168.988 309.355 168.29 304.186C167.977 302.681 168.005 300.86 168.047 299.333C167.769 287.74 170.148 265.536 176.509 255.67C183.511 257.384 188.254 258.194 195.472 257.086C205.405 255.562 214.991 252.473 221.229 244.157Z" fill="#F5D847"/>
<path d="M221.229 244.157C228.022 251.565 241.33 256.824 251.398 255.796C259.806 254.887 267.523 250.72 272.896 244.19C274.671 242.045 276.035 239.598 277.812 237.441L277.999 237.217C281.466 239.616 283.883 241.231 288.002 242.512C297.638 245.51 307.751 242.935 316.428 238.274C325.786 255.426 328.589 278.768 327.112 298.063C326.941 299.837 326.789 302.199 326.395 303.883C326.37 303.844 326.354 303.797 326.318 303.767C324.96 302.585 277.537 304.114 271.802 303.367C270.641 300.463 269.044 297.713 268.121 294.792C267.555 295.74 266.881 296.79 266.521 297.823C263.689 305.955 260.194 313.778 257.107 321.805C256.322 323.764 255.775 326.098 253.805 327.217C249.625 329.589 248.544 320.893 247.619 318.346C245.624 312.855 243.953 307.068 242.219 301.485C241.633 299.598 241.065 297.412 240.199 295.657C238.735 295.671 237.745 311.077 234.893 312.485C231.179 314.321 227.58 306.498 226.08 303.951C206.895 303.935 187.537 304.635 168.29 304.186C167.977 302.681 168.005 300.86 168.047 299.333C167.769 287.74 170.148 265.536 176.509 255.67C183.511 257.384 188.254 258.194 195.472 257.086C205.405 255.562 214.991 252.473 221.229 244.157Z" fill="#F5D847"/>
<path d="M232.267 303.988C233.761 299.505 235.79 285.173 239.455 283.365C241.222 283.313 241.761 284.302 242.33 285.881C245.324 294.178 247.907 302.632 250.809 310.965C251.582 313.183 252.449 315.363 252.932 317.664C256.935 310.122 261.536 293.481 266.656 285.843C266.982 285.358 267.846 285.418 268.368 285.471C271.913 287.581 272.288 294.283 274.809 297.499C274.971 297.705 275.524 298.154 275.729 298.157C278.89 298.193 283.111 298.226 286.178 298.207L311.926 298.102C316.054 298.063 323.425 297.736 327.112 298.063C326.941 299.838 326.789 302.2 326.395 303.883C326.37 303.845 326.354 303.798 326.318 303.767C324.96 302.585 277.537 304.115 271.802 303.368C270.641 300.464 269.044 297.713 268.121 294.793C267.555 295.74 266.881 296.79 266.521 297.824C263.689 305.955 260.194 313.778 257.107 321.805C256.322 323.764 255.775 326.098 253.805 327.217C249.625 329.59 248.544 320.893 247.619 318.347C245.624 312.855 243.953 307.069 242.219 301.486C241.633 299.598 241.065 297.413 240.199 295.658C238.735 295.672 237.745 311.078 234.893 312.486C231.179 314.321 227.58 306.498 226.08 303.952C206.895 303.936 187.537 304.635 168.29 304.186C167.977 302.682 168.005 300.86 168.047 299.334C174.284 299.116 182.034 299.334 188.406 299.32C201.988 299.345 215.57 299.265 229.15 299.08C230.088 301.064 230.994 302.23 232.267 303.988Z" fill="#D5941D"/>
<path d="M267.735 266.274C282.569 264.523 292.486 278.123 290.962 291.975C290.841 293.091 290.48 293.838 289.59 294.491C284.558 295.759 285.603 288.01 285.087 284.726C284.809 282.846 284.222 281.025 283.346 279.338C277.989 269.218 264.772 268.971 257.825 277.316C256.118 279.366 254.658 282.042 252.378 283.4C250.311 284.632 249.192 282.499 248.018 281.185C245.033 277.393 242.049 274.013 237.322 272.477L236.997 272.375C225.934 269.601 217.301 279.057 217.422 289.46C217.439 290.898 217.356 294.001 216.451 295.131C213.362 296.748 211.823 294.557 211.802 291.579C211.709 278.655 219.932 266.184 233.937 266.77C241.204 267.073 247.113 270.899 251.26 276.746C256.466 270.408 259.559 267.624 267.735 266.274Z" fill="#D5941D"/>
<path d="M282.442 306.086C283.792 306.386 285.955 307.353 285.74 308.965C284.916 315.088 255.174 341.616 252.025 340.277C242.365 336.163 227.098 322.738 220.246 314.275C217.417 310.671 216.376 309.506 221.112 307.356C223.386 309.53 225.892 312.939 228.087 315.278C233.157 320.682 245.915 331.655 252.402 334.554C252.472 334.515 252.541 334.476 252.611 334.438L252.954 334.237C255.104 332.997 256.752 331.396 258.717 329.919C265.311 324.961 270.923 319.313 276.6 313.366C278.647 311.222 279.945 307.841 282.442 306.086Z" fill="#D5941D"/>
<path d="M263.432 102.3C268.68 101.747 272.399 102.66 277.315 104.616C293.876 111.54 305.108 128.077 312.03 143.875C325.477 174.566 312.573 208.232 280.796 220.222C277.844 221.336 274.706 221.826 271.581 221.225C271.24 221.159 267.314 223.834 266.569 223.996C253.004 228.467 238.719 230.744 224.527 228.205C223.25 228.191 221.702 228.525 220.465 228.674C206.355 230.376 191.093 226.402 178.17 220.75C166.885 215.467 156.255 207.892 149.272 197.414C140.383 184.081 137.181 166.779 140.38 151.085C143.307 136.73 151.421 121.253 163.944 113.153C184.016 100.17 208.137 101.97 226.185 117.759C228.409 119.704 237.5 129.634 239.376 130.039C243.75 128.787 242.136 107.347 263.432 102.3Z" fill="#F5D847"/>
<path d="M180.165 181.735C178.28 182.061 175.621 180.622 174.074 179.572C168.905 176.014 165.358 170.55 164.212 164.38C163.033 158.081 164.637 150.46 168.272 145.177C172.219 139.443 178.324 135.557 185.19 134.409C192.157 133.193 199.32 134.836 205.06 138.966C210.749 143.033 213.24 147.64 214.238 154.497C214.456 155.996 214.888 158.697 214.016 159.881C214.553 168.227 210.532 176.21 203.506 180.746C196.48 185.282 187.549 185.66 180.165 181.735Z" fill="#FDFDFB"/>
<path d="M180.165 181.735C178.28 182.061 175.621 180.622 174.074 179.572C168.905 176.014 165.358 170.55 164.212 164.38C163.033 158.081 164.637 150.46 168.272 145.177C172.219 139.443 178.324 135.557 185.19 134.409C192.157 133.193 199.32 134.836 205.06 138.966C210.749 143.033 213.24 147.64 214.238 154.497C214.456 155.996 214.888 158.697 214.016 159.881C213.302 148.792 204.785 139.788 193.754 138.459C182.723 137.129 172.311 143.851 168.982 154.452C165.653 165.052 170.353 176.52 180.165 181.735Z" fill="black"/>
<path d="M190.133 141.438C191.978 141.324 194.113 141.666 195.851 142.268C214.255 148.647 214.179 177.031 193.626 180.806C176.256 181.036 168.91 163.817 176.948 149.352C179.323 145.078 185.449 142.354 190.133 141.438Z" fill="black"/>
<path d="M199.985 165.973C200.871 164.711 202.123 163.329 203.804 163.784C206.182 165.599 205.242 168.662 204.473 170.961C202.009 176.36 196.123 178.908 190.392 178.244C188.43 178.016 183.839 176.867 184.398 173.955C184.739 172.183 186.277 171.161 188.028 171.915C189.008 172.338 190.685 172.688 191.789 172.965C194.922 172.048 196.212 170.943 198.363 168.618C198.915 167.53 199.286 166.98 199.985 165.973Z" fill="#897652"/>
<path d="M199.985 165.973C200.871 164.711 202.123 163.329 203.805 163.784C206.183 165.599 205.243 168.662 204.473 170.961L203.482 170.882C201.95 171.285 201.16 171.597 199.723 171.01C198.863 170.268 198.769 169.706 198.363 168.618C198.916 167.53 199.287 166.98 199.985 165.973Z" fill="#FDFDFB"/>
<path d="M199.984 165.973C200.87 164.711 202.122 163.329 203.804 163.784C206.182 165.599 205.242 168.662 204.473 170.961L203.481 170.882C206.077 167.685 202.691 166.366 199.984 165.973Z" fill="#978574"/>
<path d="M180.965 147.746C183.636 147.623 184.57 147.604 187.088 148.445C190.853 152.474 191.162 156.085 186.237 159.405C184.978 159.808 183.519 160.056 182.203 159.844C180.576 159.574 179.131 158.648 178.206 157.282C177.275 155.904 176.936 154.21 177.265 152.58C177.723 150.332 179.109 148.93 180.965 147.746Z" fill="#FDFDFB"/>
<path d="M222.801 175.819C228.581 168.755 234.544 158.39 243.99 157.323C250.097 156.634 254.885 158.381 259.632 162.075L261.497 160.856C263.018 164.531 264.024 166.066 266.833 168.862C266.325 169.343 265.574 170.006 265.178 170.541C266.927 175.17 266.979 181.638 265.653 186.419C264.354 191.1 261.064 189.649 257.635 188.523C256.813 191.486 256.203 194.504 255.81 197.555C255.411 200.569 255.225 208.344 253.95 210.224C248.575 218.15 237.843 210.782 234.088 205.676C228.791 198.474 227.083 194.498 224.911 186.266C223.921 182.514 223.723 179.411 222.882 176.127L222.801 175.819Z" fill="black"/>
<path d="M261.498 160.855C263.019 164.531 264.025 166.066 266.834 168.861C266.326 169.343 265.575 170.006 265.179 170.541C263.5 166.625 262.771 164.863 259.633 162.075L261.498 160.855Z" fill="#FCE3B0"/>
<path d="M245.12 160.988C259.685 159.888 264.376 173.233 261.78 185.51C258.198 184.397 255.532 182.303 251.325 181.108C249.792 180.679 247.406 180.552 245.83 180.521C237.794 180.362 235.228 180.222 228.785 175.396C233.863 168.945 236.203 162.622 245.12 160.988Z" fill="#D5941D"/>
<path d="M247.617 163.441C252.056 164.009 253.629 163.747 256.822 166.988C256.945 168.746 257.321 169.863 256.781 171.562C256.056 171.902 256.434 171.844 255.602 171.679C254.119 170.287 248.179 164.881 247.617 163.441Z" fill="#FDB53A"/>
<path d="M227.412 179.4C230.961 181.551 232.812 182.781 236.939 183.848C244.311 185.753 248.418 182.745 254.89 186.936C252.95 191.01 252.123 193.889 251.807 198.418C251.697 199.992 251.633 202.944 250.679 204.082C251.215 205.691 251.18 209.399 249.247 209.727C240.85 211.155 234.459 199.722 231.561 193.644C229.811 189.063 227.962 184.301 227.412 179.4Z" fill="#782D21"/>
<path d="M231.564 193.644C232.434 192.991 235.961 193.453 237.147 193.612C242.421 194.317 245.847 197.413 248.9 201.534C249.51 202.372 250.104 203.221 250.682 204.082C251.218 205.691 251.183 209.398 249.25 209.727C240.853 211.155 234.462 199.721 231.564 193.644Z" fill="#EA8459"/>
<path d="M261.499 160.855C259.223 153.481 259.067 147.513 262.669 140.393C268.076 129.999 280.498 126.051 290.84 131.505C301.667 137.214 306.304 152.117 300.528 162.812C299.897 163.985 297.58 167.318 296.274 167.408C293.97 170.016 285.194 176.293 282.083 173.14C281.667 173.193 281.251 173.239 280.837 173.28C273.866 173.958 272.137 173.237 266.834 168.861C264.025 166.065 263.019 164.531 261.499 160.855Z" fill="black"/>
<path d="M274.037 134.058C286.21 129.814 296.83 137.143 299.833 149.343C301.412 155.753 299.695 161.884 296.273 167.408C293.969 170.017 285.193 176.294 282.082 173.14C295.879 168.196 296.347 145.074 284.967 137.404C280.886 134.653 278.841 134.196 274.037 134.058Z" fill="#FDFDFB"/>
<path d="M283.588 160.753C285.376 157.189 287.332 156.008 289.484 160.276L288.768 163.53C288.041 166.787 283.954 170.162 280.788 170.948C278.396 171.542 276.349 171.31 273.947 171.01C272.146 169.395 268.652 166.089 273.853 165.222C274.445 165.123 276.93 165.848 277.655 166.042C279.851 165.301 283.251 163.305 283.588 160.753Z" fill="#897652"/>
<path d="M283.588 160.753C285.376 157.189 287.333 156.008 289.485 160.276L288.768 163.53C285.795 164.422 284.255 163.808 283.588 160.753Z" fill="#FDFDFB"/>
<path d="M269.66 140.009C272.754 139.242 275.901 141.065 276.771 144.132C277.645 147.198 275.928 150.404 272.894 151.381C270.837 152.043 268.582 151.53 267.014 150.043C265.445 148.556 264.813 146.332 265.364 144.242C265.915 142.152 267.562 140.529 269.66 140.009Z" fill="#FDFDFB"/>
<path d="M177.927 185.29C182.256 185.026 187.64 185.854 191.032 188.791C195.036 192.257 194.317 197.414 190.963 201.054C187.104 205.243 181.421 207.445 175.811 207.788C167.997 207.964 161.895 207.572 158.617 199.406C160.574 189.889 168.888 185.957 177.927 185.29Z" fill="#EA8459"/>
<path d="M300.665 170.671C304.005 170.27 308.576 170.505 311.525 172.224C316.722 175.254 314.84 180.532 310.621 183.396C308.086 185.117 306.16 185.8 303.17 186.507C296.78 188.147 284.84 183.841 290.718 175.432C292.71 172.581 297.243 171.038 300.665 170.671Z" fill="#EA8459"/>
<path d="M398.564 193.188C407.001 192.77 413.623 196.543 420.156 201.622C421.961 203.026 423.493 204.929 424.518 206.979C424.524 208.995 424.427 209.937 424.141 211.945C415.425 220.611 404.882 209.228 400.462 210.217C399.95 210.332 399.886 210.474 399.602 210.877C399.211 215.27 407.064 218.255 410.181 219.7C410.749 222.706 410.856 225.102 410.82 228.151C410.798 229.842 409.633 234.906 411.319 235.467C417.1 233.687 416.072 225.231 415.323 220.767L415.609 220.395C418.492 220.642 419.015 227.441 428.726 227.647C428.649 237.168 434.766 239.439 443.091 239.397C437.083 246.503 432.912 250.187 423.099 250.551C420.999 250.629 418.751 250.016 416.833 250.336C416.012 250.879 415.742 251.853 415.337 252.788C418.701 255.022 423.088 255.276 427.042 255.836C427.081 261.014 427.051 275.761 421.382 278.932C416.965 281.407 413.554 271.228 411.057 270.226C409.963 270.61 410.181 270.677 409.308 271.726C408.627 273.545 408.431 276.345 408.103 278.359C407.2 283.948 404.918 290.032 400.964 294.184C399.503 295.717 396.062 298.566 393.937 298.615C389.247 297.172 392.457 286.623 388.145 285.874C386.536 286.452 383.419 291.093 382.022 292.683C375.006 300.685 368.974 303.46 358.671 304.248C361.038 283.06 360.226 262.613 355.106 241.843C354.323 238.67 352.598 232.412 351.262 229.614C353.411 230.061 356.277 230.31 358.503 230.379C367.679 230.639 376.58 227.216 383.218 220.874C383.799 222.092 385.34 225.642 386.263 226.026C389.145 227.186 388.98 225.351 388.52 223.256C386.232 212.845 385.888 196.539 398.564 193.188Z" fill="#484944"/>
<path d="M303.819 409.471C308.515 409.256 318.716 414.825 321.981 418.057C328.068 424.086 333.8 435.679 319.655 435.087C317.591 429.735 314.321 424.924 309.057 422.37C306.831 421.289 301.943 419.738 300.57 422.607C300.573 424.464 302.433 425.627 303.825 426.456C309.548 429.873 313.789 434.293 312.033 441.507C311.758 442.64 310.523 443.086 309.584 443.508C302.687 444.96 297.487 441.973 291.193 439.537C284.574 436.974 277.743 434.786 270.846 433.122C258.827 430.223 260.846 423.455 263.809 414.359C268.516 416.288 273.332 416.288 278.311 416.318C288.242 416.376 295.227 414.131 303.819 409.471Z" fill="#D5941D"/>
<path d="M176.266 419.062C177.305 418.979 182.792 422.137 184.711 422.658C196.38 425.816 204.02 425.105 215.46 423.091C215.511 424.956 215.882 429.125 215.159 430.729C213.379 434.678 210.113 438.329 207.227 441.578C203.595 445.474 199.707 450.401 194.692 452.55C190.154 454.499 185.399 454.576 183.207 449.456C182.532 446.86 182.662 443.471 183.473 440.922C184.319 438.26 188.433 433.215 186.25 430.671C185.443 430.443 185.015 430.459 184.238 430.839C176.744 434.507 176.866 442.008 174.411 448.392C167.47 449.889 159.238 449.346 160.828 439.883C162.163 431.936 170.059 423.788 176.266 419.062Z" fill="#D5941D"/>
<path d="M431.266 151.586C443.228 150.817 436.458 173.062 433.385 178.686C431.947 181.315 429.354 186.794 429.056 189.527C430.307 192.145 437.971 190.124 440.828 192.414C442.415 193.655 444.342 196.573 444.609 198.639C445.697 207.063 437.67 219.584 429.552 221.996C426.775 222.822 424.513 221.463 422.352 219.967C424.16 219.038 424.774 218.636 426.408 217.42C431.239 212.906 430.947 205.498 426.411 200.921C427.533 198.973 431.536 194.723 430.057 192.939C426.26 191.233 424.956 195.108 423.645 197.986C418.922 193.878 413.636 191.633 407.99 189.161C409.949 186.592 410.988 183.813 412.482 181.009C416.395 173.66 419.404 165.569 423.611 158.447C425.607 155.069 427.417 152.521 431.266 151.586Z" fill="#484944"/>
<path d="M82.6457 349.082C84.3591 349.206 88.1367 351.025 89.9705 351.65C101.175 355.475 106.195 354.822 116.869 351.636C118.938 355.604 120.517 359.898 122.486 363.769C125.069 368.845 129.791 376.07 133.394 380.556C124.264 384.113 117.476 383.334 108.51 381.148C112.386 378.335 116.333 374.915 118.444 370.562C115.92 372.11 113.531 373.133 110.844 374.353C100.043 379.065 96.4662 378.561 86.539 373.017C93.5764 369.49 100.382 366.177 104.55 359.206C89.3684 362.628 79.1095 372.568 63.6387 360.586C66.8696 357.892 69.9456 356.503 73.5534 354.378C76.6135 352.576 79.5173 350.782 82.6457 349.082Z" fill="#484944"/>
<path d="M448.276 207.355C457.204 209.253 457.221 219.92 452.939 226.043C449.654 230.742 446.97 232.864 441.382 233.963C439.007 234.017 438.345 233.82 436.127 233.178C434.912 232.014 432.473 227.771 434.049 226.586C441.481 220.998 445.297 216.174 448.276 207.355Z" fill="#484944"/>
<path d="M49.4525 121.13C48.6616 118.844 42.301 106.32 40.8221 105.01C33.3994 98.4373 25.4583 93.676 20.5598 84.4195C15.9923 75.7886 15.8373 64.9785 18.5902 55.7226C27.3058 29.6498 55.5648 21.9327 78.3494 35.8937C82.8989 38.6812 88.386 45.267 90.8616 50.0977C96.4581 60.873 96.6714 73.6503 91.4378 84.6064C89.4461 88.7929 86.7475 92.8154 85.2166 97.1554C83.3196 102.533 84.254 108.434 82.5249 113.783C83.6354 117.712 86.5695 128.858 84.785 132.995C84.4745 133.715 82.2152 136.333 81.9259 136.997C79.6418 142.245 78.7697 144.955 72.7154 146.735C69.7499 147.608 66.4815 147.531 63.5653 146.064C61.6552 145.104 59.7189 142.491 58.634 141.742C54.1011 138.612 52.8002 140.358 51.2436 134.103C49.9634 128.958 49.5668 126.486 49.4525 121.13Z" fill="#E08015"/>
<path d="M49.4531 121.13C57.9196 123.686 70.1997 121.146 78.1156 117.441C79.201 116.934 81.4994 114.657 82.5256 113.783C83.6361 117.712 86.5702 128.858 84.7857 132.995C84.4751 133.716 82.2159 136.333 81.9265 136.997C79.6424 142.245 78.7703 144.955 72.7161 146.736C69.7506 147.608 66.4822 147.531 63.566 146.065C61.6558 145.104 59.7195 142.491 58.6346 141.742C54.1017 138.612 52.8008 140.358 51.2442 134.103C49.964 128.959 49.5675 126.486 49.4531 121.13Z" fill="black"/>
<path d="M52.8672 125.299C59.3212 125.096 64.6971 124.576 70.95 122.924C72.0921 122.622 79.7666 120.306 80.0163 120.336C82.121 126.425 72.0318 125.234 72.0775 129.071C73.6733 130.809 77.7452 126.687 80.595 127.452C84.4461 131.868 73.541 135.185 70.7744 135.581C67.5626 136.041 56.2485 139.278 55.8765 133.544C55.9363 131.833 55.5894 131.073 55.0931 129.449C54.0601 128.346 53.4131 126.716 52.8672 125.299Z" fill="#737271"/>
<path d="M55.0938 129.447C57.2728 129.437 65.8275 129.101 67.0314 130.262C66.0611 131.97 58.18 132.884 55.8772 133.543C55.937 131.831 55.59 131.071 55.0938 129.447Z" fill="#484944"/>
<path d="M76.0671 138.635L76.344 138.665L76.5487 138.987C74.4206 142.534 69.446 143.614 65.6844 142.225C64.9065 141.762 64.887 141.787 64.2617 141.072C64.6671 140.413 66.9492 140.425 67.858 140.314C70.6337 139.967 73.3782 139.406 76.0671 138.635Z" fill="#737271"/>
<path d="M53.0978 33.1816C55.4362 32.814 58.9501 33.0736 61.2871 33.4963C70.8599 35.1926 79.3434 40.6786 84.8179 48.7124C92.1507 59.4801 93.1738 74.1385 86.2158 85.3255C84.0022 88.8846 82.1618 93.0981 80.7184 96.998C79.0838 101.414 79.8937 106.189 79.0229 110.662C76.9058 113.377 75.8593 114.016 72.8433 115.361C71.9139 106.755 70.2076 101.743 70.2751 92.8498C74.8188 90.5095 78.1161 87.1389 78.5388 81.7403C78.8394 78.6849 76.7906 74.793 73.3578 74.8933C67.2776 75.071 66.6243 85.5421 66.8216 90.0653L62.1895 88.9995C64.3347 83.4936 65.7726 78.2266 61.2251 73.4535C55.4574 72.0746 52.5205 73.9453 52.6129 79.972C53.7239 84.4859 55.609 86.536 58.895 89.6895L54.9038 93.3863C53.5552 90.005 49.7093 80.1043 43.8303 81.7648C42.2054 82.2239 41.072 84.0026 40.3418 85.4983C40.5146 94.6677 45.73 96.1705 53.2847 97.4136C55.3538 103.164 57.9776 112.369 59.3042 118.233C56.3816 118.186 54.0951 118.331 51.4754 116.999C50.0623 114.458 48.951 111.638 47.4109 109.073C44.0781 103.316 39.0891 99.3987 33.9869 95.3662C10.0196 76.4231 22.9165 35.7404 53.0978 33.1816Z" fill="#FDB53A"/>
<path d="M41.8013 42.2005C48.3805 41.5621 49.2066 46.2983 47.4298 51.5656C45.3899 57.6132 40.8584 61.4158 35.2343 64.1124C33.8402 64.4927 32.49 64.3825 31.2404 63.6839C26.662 61.1243 30.2046 53.1547 31.9474 50.0607C34.3434 45.8073 37.3136 43.4631 41.8013 42.2005Z" fill="#FCE3B0"/>
<path d="M28.7287 68.0949C33.3302 67.8042 35.9516 71.8417 31.8645 74.6956C26.6891 76.6625 26.136 70.09 28.7287 68.0949Z" fill="#FCE3B0"/>
<path d="M60.8368 92.2012C62.0909 92.2488 65.4634 93.3704 66.9302 93.7721C66.9238 97.1025 68.6675 113.472 69.4857 116.436L65.1845 117.194C63.9919 117.408 63.6593 117.521 62.4797 117.409C61.5491 113.019 58.1931 99.7492 56.3535 96.2C58.2529 94.6511 59.0859 93.9939 60.8368 92.2012Z" fill="#FDB53A"/>
<path d="M45.2506 84.8125C45.384 84.826 45.8306 84.8624 45.9197 84.9161C47.6882 85.985 52.0036 92.0618 51.5661 93.8849L50.8645 93.9827C47.4614 93.0745 40.2231 87.7849 45.2506 84.8125Z" fill="#FDB53A"/>
<path d="M73.1325 78.0762C77.2234 79.9822 73.9431 85.8893 71.6808 88.1237C71.0054 88.6886 70.9572 88.9601 70.3265 88.9052C69.2573 86.2141 71.0523 80.1776 73.1325 78.0762Z" fill="#FDB53A"/>
<path d="M57.7828 75.7012C60.2204 76.2732 60.6092 77.8706 60.7687 80.1927C60.8663 81.6165 60.4981 85.3351 59.588 86.3564C58.3006 84.8069 56.0531 80.1671 56.3535 78.0439C56.5431 76.7028 56.7729 76.6237 57.7828 75.7012Z" fill="#FDB53A"/>
<path d="M111.37 22.2168C112.956 23.2036 114.356 27.2851 115.398 28.3143C116.628 29.5279 119.05 30.8938 120.61 32.2738C121.033 33.5758 116.975 35.3862 115.831 36.3958C113.868 38.128 114.039 42.2745 111.635 43.0816C109.787 40.3107 108.378 36.6631 105.392 35.2567C104.172 34.6816 102.029 33.7789 101.367 32.6568C101.988 30.7431 105.477 30.5014 106.748 29.2375C109.292 26.7092 108.559 25.1777 111.37 22.2168Z" fill="#F5D847"/>
<path d="M10.5863 108.105C10.9267 108.166 11.6017 108.344 11.774 108.65C13.4411 111.617 15.0912 114.432 18.1561 116.176C13.5028 119.413 14.0851 120.25 11.3635 123.749C9.63213 122.902 7.88092 119.447 6.10394 118.109C5.11952 117.368 4.01578 116.854 2.91797 116.313C7.89436 113.322 7.42314 112.615 10.5863 108.105Z" fill="#F5D847"/>
<path d="M30.3624 137.609C31.1288 138.062 31.576 138.471 32.0265 139.272C33.099 141.178 34.8477 141.275 36.4296 142.997L36.3971 143.586C35.547 144.561 34.2221 145.074 33.029 145.672C32.3649 146.961 31.7369 148.639 31.0387 150.067L30.5179 150.042C28.3412 145.531 27.8728 146.421 25.1016 143.214C25.1493 143.041 29.6306 138.619 30.3624 137.609Z" fill="#FDB53A"/>
</svg>
