<svg width="500" height="500" viewBox="0 0 500 500" fill="none" xmlns="http://www.w3.org/2000/svg">
<path d="M157.413 103.024C156.742 99.0628 154.524 94.7363 152.885 90.9735C149.032 82.1308 147.802 74.4835 147.729 64.9018C147.677 58.0803 148.143 54.4335 156.475 53.6058C168.348 52.4263 182.042 56.7688 193.381 60.245C195.231 60.8253 197.227 62.1595 198.975 62.7418C203.442 64.2305 209.069 68.4218 213.293 69.6633L213.683 69.7818C219.3 68.2813 228.592 65.681 234.401 65.1475C256.808 63.0888 279.798 65.8555 300.948 73.5918C306.895 75.7673 313.285 79.331 319.07 82.018C324.248 84.4213 328.963 89.5083 334.38 91.4988C337.445 92.003 341.415 89.9808 344.34 89.5753C356.785 87.851 371.973 84.7795 383.855 90.0883C388.95 93.5235 388.72 96.4153 387.728 101.138C385.758 111.324 379.87 120.635 373.655 128.771C372.425 130.383 368.613 133.717 369.323 135.644C372.38 143.959 375.315 152.677 376.628 161.518C378.08 171.287 378.008 182.54 377.08 192.377C376.393 197.823 374.66 204.209 373.708 209.93C377.223 214.686 377.895 213.668 382.015 216.884C388.095 221.832 394.663 225.063 401.873 228.019C420.618 235.705 446.755 238.344 455.27 259.612C458.253 267.065 458.875 272.88 455.183 279.807C455.153 279.865 455.653 280.775 455.725 280.9C455.49 281.555 455.445 281.527 454.948 282.032C456.015 284.887 459.943 289.295 460.248 292.752C460.89 299.997 462.938 310.825 454.095 313.877C447.978 315.99 442.385 315.147 439.873 308.497C438.865 305.827 438.665 301.57 435.815 300.2C433.878 299.312 431.325 299.13 429.315 299.752C426.718 300.557 424.423 304.905 423.518 307.412C420.323 316.245 420.59 329.05 422.693 338.12C423.863 343.165 426.1 346.912 426.035 352.487C425.933 361.22 424.778 369.972 423.86 378.612C422.308 393.23 421.743 407.407 421.678 422.105C421.653 427.367 422.225 428.715 420.21 433.82C415.705 435.22 409.095 435.542 404.553 433.672C400.393 431.96 401.888 424.112 401.383 420.527C401.303 414.055 400.955 407.622 400.69 401.105C399.7 390.735 399.61 380.892 399.678 370.485C399.735 361.712 399.585 353.017 400.055 344.247C399.728 341.152 398.688 338.085 398.013 334.995C396.223 326.785 394.958 319.787 394.518 311.317C388.79 311.115 386.973 310.657 382.933 306.307C382.59 305.94 382.255 305.565 381.93 305.182C377.718 305.277 371.015 305.272 367.278 303.03C363.788 321.875 356.415 342.295 343.458 356.855C341.87 358.637 339.39 361.61 338.403 363.7C335.295 370.295 333.545 378.512 328.393 383.825C327.928 384.305 327.775 383.915 327.333 384.83C327.788 385.82 327.443 385.587 328.195 385.87C328.84 385.325 328.828 385.285 329.263 384.602C330.823 387.002 332.635 387.862 335.148 389.067C346.813 394.66 350.865 398.26 353.948 410.522C352.383 415.09 351.168 420.052 346.428 422.235C342.83 423.89 341.938 422.675 338.558 424.977C335.973 427.375 335.325 427.765 332.053 429.13C329.365 430.72 327.83 431.102 324.733 431.285C320.325 431.542 317.013 430.305 313.015 428.537C304.92 424.96 296.325 422.525 288.15 419.145C286.57 418.492 284.695 418.672 283.195 417.822C280.573 416.512 276.713 413.35 275.245 410.83C275.115 410.61 274.99 410.385 274.87 410.16C274.913 409.095 275.055 407.34 274.928 406.337C274.4 402.132 275.493 398.41 275.745 394.337C274.43 393.147 271.778 390.452 270.013 390.78C262.103 392.24 254.915 392.84 246.817 392.842C242.366 392.852 237.916 392.692 233.477 392.36C227.438 391.91 224.58 391.347 218.487 391.71C217.207 393.672 216.796 394.212 214.444 394.725C214.176 394.782 213.907 394.84 213.638 394.892C216.976 409.075 210.174 414.157 200.553 422.745C195.381 427.36 190.512 434.71 183.243 436.372C180.286 437.082 174.972 436.79 172.272 435.405C171.24 434.427 166.848 430.957 165.747 430.305L165.489 430.392C166.086 431.815 166.821 432.337 167.947 433.455C166.965 432.817 166.008 432.137 165.048 431.467C163.443 431.47 161.839 431.387 160.243 431.22C155.808 430.747 145.975 426.71 145.002 420.94C144.862 420.107 144.977 412.417 145.114 411.787C146.679 404.61 155.398 397.277 161.105 393.11C163.35 390.895 162.083 389.975 160.511 387.837C158.502 385.492 156.744 383.34 155.168 380.647C152.815 376.625 152.14 372.987 148.534 369.827C145.362 371.342 143.565 371.705 140.64 372.825C132.576 375.92 128.112 375.315 119.805 374.15C117.119 373.495 114.696 372.007 112.755 370.057C110.622 368.845 108.113 368.567 105.546 368.672C99.0062 368.937 92.1435 366.172 89.0585 360.12C88.6132 359.247 88.344 358.66 87.7425 357.885L87.4285 357.8C84.5522 357.05 80.516 356.88 77.9625 356.017C74.6317 354.892 68.6712 350.895 68.1205 347.137C67.3625 341.967 70.1377 338.305 74.5807 336.015C78.99 333.797 82.813 331.87 86.4607 328.395C84.7292 326.522 82.6812 324.802 81.1447 322.81C73.9862 313.535 73.3522 303.2 73.3087 292.017C73.259 279.27 75.6137 268.655 79.5675 256.662C88.4012 229.706 104.165 205.545 125.278 186.599C127.767 184.333 133.673 180.56 133.845 177.427C133.932 175.829 132.859 173.575 133.033 171.929C133.691 165.757 133.506 159.027 134.448 152.923C136.289 140.989 140.702 129.6 146.27 118.96C149.429 112.925 154.369 108.501 157.413 103.024Z" fill="black"/>
<path d="M400.055 344.248C400.842 348.046 400.812 353.798 400.875 357.853C401.015 366.988 400.965 376.353 400.815 385.486C400.762 388.803 401.122 398.308 400.69 401.106C399.7 390.736 399.61 380.893 399.677 370.486C399.735 361.713 399.585 353.018 400.055 344.248Z" fill="#CCC3C4"/>
<path d="M332.053 429.131C333.703 427.856 337.168 424.073 338.45 423.756L338.745 424.053L338.558 424.978C335.973 427.376 335.325 427.766 332.053 429.131Z" fill="#CCC3C4"/>
<path d="M112.756 370.057C112.968 370.017 113.18 369.977 113.392 369.938C115.282 371.013 118.356 372.72 120.138 373.75L120.048 374.033L119.806 374.15C117.12 373.495 114.697 372.007 112.756 370.057Z" fill="#636367"/>
<path d="M160.512 387.838C162.187 388.983 162.996 389.633 164.081 391.43C162.996 392.2 162.398 392.71 161.106 393.11C163.351 390.895 162.083 389.975 160.512 387.838Z" fill="#636367"/>
<path d="M153.77 61.1608C167.73 58.7455 181.545 63.251 194.746 67.8105C201.131 70.0157 206.065 74.0447 212.132 76.68C213.666 77.346 226.123 73.0237 228.746 73.0652C261.511 67.4832 298.731 74.8603 326.013 94.0588C327.623 95.204 329.173 96.4317 330.658 97.7372C332.953 99.7672 341.621 109.162 344.641 106.475C345.938 103.283 342.273 99.9035 340.253 97.849C350.608 93.3445 370.856 93.4855 381.838 95.5705C380.568 106.598 374.511 116.279 367.961 125.091C365.866 127.909 362.768 130.672 360.723 133.514C362.631 139.178 366.041 144.799 367.626 150.485C373.648 172.774 372.581 198.639 362.646 219.676C361.398 222.317 359.231 225.671 359.181 228.589C359.111 232.886 359.651 237.192 360.293 241.436C360.851 245.115 361.861 248.863 362.163 252.573C363.093 263.96 362.863 275.518 362.513 286.933C362.456 288.758 362.343 290.593 362.163 292.408C359.481 312.506 354.098 332.198 341.761 348.658C339.108 352.195 335.563 355.19 333.296 359.028C331.616 362.013 331.058 365.67 329.773 368.81C325.971 378.098 319.243 386.003 309.423 389.023C304.418 390.715 299.233 391.838 293.926 391.826C291.846 391.821 289.166 391.805 287.166 391.143C283.693 389.99 280.888 388.808 277.263 388.048L277.583 387.905C284.278 384.955 294.203 383.308 299.188 377.035C296.668 372.635 294.498 374.343 290.576 376.233C282.266 380.243 273.581 383.333 264.443 384.8C253.128 386.69 240.103 386.583 228.626 385.775C226.044 385.593 221.282 384.518 218.671 383.951L218.349 384.12C215.402 385.69 212.847 388.215 210.209 389.85C195.375 399.048 169.359 393.455 160.995 377.72C159.142 374.233 157.732 369.823 155.495 366.525C150.944 361.92 145.187 357.355 140.63 352.595C136.78 348.575 134.617 343.988 131.189 340.268C136.663 335.568 139.095 328.096 139.638 321.078C139.718 319.898 139.77 318.718 139.793 317.535C148.019 321.648 156.542 319.858 160.583 311.208C165.502 300.678 160.837 288.153 162.143 277.073C163.649 264.538 168.316 252.673 167.829 239.841C167.751 237.789 167.573 226.829 163.528 228.451C159.689 229.99 161.328 238.326 161.268 241.897C161.191 245.129 160.985 248.357 160.652 251.573C159.704 260.91 156.576 268.558 155.722 278.473C155.649 287.693 159.027 302.158 153.833 310.555C152.963 311.963 150.204 313.445 148.411 313.59C144.257 313.948 140.035 309.715 138.198 306.305C136.122 302.45 136.219 300.498 132.673 297.678C130.976 298.873 130.614 299.186 129.253 300.701C130.571 305.086 130.928 307.328 133.953 310.835C134.24 318.045 133.633 328.015 128.91 333.91C127.329 335.883 125.16 337.533 122.564 337.74C120.388 337.913 118.266 336.985 116.627 335.605C108.479 328.745 110.015 312.718 107.577 311.123C106.935 310.703 106.183 310.678 105.477 310.923C104.581 311.233 103.946 311.946 103.596 312.811C102.411 315.746 104.047 324.14 104.893 327.15C105.363 328.825 106.036 330.41 106.721 332.005C95.9592 332.16 92.4149 325.261 92.0099 315.376C91.9342 313.526 92.3377 310.163 91.5427 308.49C90.8334 306.998 89.0334 305.616 87.3549 306.641C85.7602 309.261 86.1794 315.4 86.1739 318.613C78.4497 306.673 79.7872 290.806 81.3427 277.201C87.5859 241.804 107.203 209.49 134.93 186.819C141.843 181.166 139.478 176.63 139.843 168.227C140.2 159.304 141.632 150.457 144.109 141.878C147.1 131.86 151.428 122.456 157.435 113.846C159.61 110.728 163.783 106.322 165.383 103.302C161.492 93.2775 156.754 83.2993 154.699 72.5388C153.912 68.4195 154.144 65.0735 153.77 61.1608Z" fill="#383738"/>
<path d="M128.553 291.811C130.553 284.891 131.957 278.713 138.832 275.083C142.867 272.953 146.891 272.656 151.288 273.853C153.39 274.426 155.451 276.258 155.722 278.473C155.649 287.693 159.027 302.158 153.833 310.556C152.963 311.963 150.204 313.446 148.411 313.591C144.257 313.948 140.035 309.716 138.198 306.306C136.122 302.451 136.219 300.498 132.673 297.678C130.976 298.873 130.614 299.186 129.253 300.701C130.571 305.086 130.928 307.328 133.953 310.836C134.24 318.046 133.633 328.016 128.91 333.911C127.329 335.883 125.16 337.533 122.564 337.741C120.388 337.913 118.266 336.986 116.627 335.606C108.479 328.746 110.015 312.718 107.577 311.123C106.935 310.703 106.183 310.678 105.477 310.923C104.581 311.233 103.946 311.946 103.596 312.811C102.411 315.746 104.047 324.141 104.893 327.151C105.363 328.826 106.036 330.411 106.721 332.006C95.9592 332.161 92.4149 325.261 92.0099 315.376C91.9342 313.526 92.3377 310.163 91.5427 308.491C90.8334 306.998 89.0334 305.616 87.3549 306.641C85.7602 309.261 86.1794 315.401 86.1739 318.613C78.4497 306.673 79.7872 290.806 81.3427 277.201L81.7127 277.036C82.7422 277.828 83.4359 279.211 84.2094 280.261C85.3212 281.773 86.4722 283.598 87.6372 285.031C90.1792 288.156 94.4524 288.411 98.0104 289.593C100.651 290.458 103.248 291.676 105.861 292.608L106.164 292.488C115.917 288.533 118.18 283.718 128.553 291.811Z" fill="#636367"/>
<path d="M224.841 95.591C234.83 94.17 250.312 98.2757 258.917 103.445C271.255 110.857 281.317 125.152 284.682 139.121C294.795 121.122 312.025 108.061 333.022 116.196C353.645 124.185 362.415 147.383 363.17 167.916C364.222 196.549 351.4 217.308 326.097 229.821C319.707 232.722 307.007 236.409 299.822 237.14C289.46 237.806 278.147 238.243 267.83 236.824C259.952 235.652 252.192 233.898 244.473 232.191C227.153 228.362 210.712 221.314 196.822 210.122C181.503 197.779 172.477 181.395 170.627 161.746C170.206 157.282 170.73 153.501 171.579 149.14C173.044 136.272 178.515 125.718 186.639 115.756C195.603 104.765 210.682 97.072 224.841 95.591Z" fill="#FCDD58"/>
<path d="M295.715 175.309C293.85 156.522 303.248 139.206 322.93 136.645C340.523 134.357 354.95 149.536 355.953 166.386C356.475 175.21 352.74 184.613 347.098 191.2C347.603 192.597 347.265 194.227 347.475 195.721C348.935 206.201 332.498 212.694 324.128 210.342C314.963 208.684 306.885 203.317 301.805 195.509C300.78 193.944 299.355 190.542 298.135 189.482C297.778 191.147 297.09 194.518 296.338 196.021C294.545 199.6 290.333 206.787 287.118 209.228C283.808 211.741 276.138 217.569 272.008 216.469C264.988 214.6 262.045 207.013 261.033 200.521C259.123 189.228 259.885 176.737 270.605 170.106C274.363 167.782 279.553 165.892 283.965 167.12C289.115 168.656 292.895 170.763 295.715 175.309Z" fill="black"/>
<path d="M298.135 189.482C299.145 187.882 299.267 186.478 299.325 184.615C301.532 188.167 303.792 190.85 306.93 193.608C307.425 194.043 308.957 195.393 309.29 195.825C322.477 204.384 336.16 202.035 347.097 191.2C347.602 192.597 347.265 194.227 347.475 195.721C348.935 206.201 332.497 212.694 324.127 210.342C314.962 208.684 306.885 203.317 301.805 195.509C300.78 193.944 299.355 190.542 298.135 189.482Z" fill="#E2AD45"/>
<path d="M298.135 189.482C299.145 187.882 299.267 186.478 299.325 184.615C301.532 188.167 303.792 190.85 306.93 193.608C307.425 194.043 308.957 195.393 309.29 195.825C307.707 199.604 321.485 205.211 324.14 206.579C324.702 206.869 324.207 209.744 324.127 210.342C314.962 208.684 306.885 203.317 301.805 195.509C300.78 193.944 299.355 190.542 298.135 189.482Z" fill="#534A24"/>
<path d="M324.413 141.1C331.683 140.146 340.47 144.353 344.978 150.007C351.038 157.604 351.59 164.036 350.68 173.396C346.565 171.641 342.483 169.807 338.438 167.895C336.143 166.832 333.58 165.625 331.225 164.714C322.568 161.365 313.945 155.97 305.143 153.235C308.3 145.585 316.638 141.934 324.413 141.1Z" fill="#E2AD45"/>
<path d="M302.275 157.203C303.703 157.333 304.773 157.838 306.093 158.365C305.05 160.49 304.298 162.09 303.83 164.48C300.838 179.843 318.385 193.486 331.878 184.032C335.588 181.431 338.593 178.078 339.445 173.425C343.718 175.384 345.41 175.827 349.798 178.425C349.27 179.338 348.71 180.581 348.238 181.551C348.065 181.95 347.88 182.343 347.685 182.73C346.718 184.635 345.75 185.993 344.295 187.609C327.328 206.442 299.888 192.419 299.973 168.709C299.988 164.59 300.285 161.015 302.275 157.203Z" fill="#F0B3B2"/>
<path d="M280.565 172.824C282.853 172.762 286.573 174.394 288.358 175.813C299.065 184.328 289.25 197.07 283.52 204.67L282.385 202.06C279.388 193.917 271.533 191.803 267.525 186.032C267.47 184.688 267.555 183.512 267.628 182.174C268.085 181.526 268.548 180.883 269.02 180.245C272.173 175.987 275.293 173.616 280.565 172.824Z" fill="#F79734"/>
<path d="M266.322 194.404C273.78 198.45 274.967 200.698 278.182 207.879C277.912 208.165 276.89 209.02 276.545 209.321C268.645 214.643 266.617 199.031 266.322 194.404Z" fill="#F79734"/>
<path d="M309.318 160.096C311.648 160.888 318.963 164.591 321.418 165.852C320.523 168.258 320.126 168.636 318.321 170.33C317.973 170.753 317.841 170.804 317.388 171.067C312.348 173.991 307.378 168.75 308.278 163.64C308.501 162.377 308.873 161.349 309.318 160.096Z" fill="#F0B3B2"/>
<path d="M196.143 171.639C192.161 163.857 191.148 154.642 193.866 146.293C196.767 137.581 203.019 130.384 211.238 126.292C238.032 112.673 268.107 138.929 258.095 167.267C256.957 170.487 255.492 173.449 254.385 176.728C250.962 189.531 236.561 199.206 223.781 199.682C220.903 199.789 218.522 200.599 216.03 198.419C207.651 196.287 198.006 193.943 194.632 184.859C192.77 179.848 194.052 176.216 196.143 171.639Z" fill="black"/>
<path d="M196.142 171.639C205.426 188.366 223.349 194.864 240.959 186.817C242.785 185.203 247.161 183.143 249.333 180.791C250.447 179.585 252.842 177.102 254.384 176.728C250.962 189.531 236.56 199.206 223.781 199.682C220.903 199.789 218.522 200.599 216.029 198.419C207.65 196.287 198.006 193.943 194.631 184.859C192.769 179.848 194.051 176.216 196.142 171.639Z" fill="#E2AD45"/>
<path d="M240.96 186.818C242.785 185.204 247.162 183.144 249.333 180.792C250.447 179.586 252.842 177.103 254.385 176.729C250.962 189.532 236.561 199.207 223.781 199.683C220.903 199.79 218.522 200.6 216.029 198.42C216.224 196.658 216.279 195.664 218.246 195.792C225.389 196.26 231.468 194.236 237.573 190.599C238.535 190.026 241.185 188.376 241.484 187.177L240.96 186.818Z" fill="#534A24"/>
<path d="M225.434 127.363C228.276 127.227 232.397 127.499 235.119 128.461C244.71 131.853 249.102 136.995 253.545 145.619C246.885 147.48 243.23 147.872 236.502 148.926C231.679 149.681 227.502 150.663 222.442 151.309C213.316 152.534 205.93 154.603 196.59 154.596C199.573 138.927 208.777 128.051 225.434 127.363Z" fill="#E2AD45"/>
<path d="M254.615 151.096C254.703 151.1 255.035 151.286 255.13 151.334C256.553 156.718 254.613 164.071 252.388 168.964C244.79 185.684 221.867 190.778 207.925 178.926C203.516 175.177 200.914 172.09 198.983 166.666C198.554 165.366 197.168 161.617 197.168 160.414C199.383 159.417 207.986 158.236 210.662 157.984C211.707 163.551 213.231 167.246 217.483 171.014C225.976 178.54 239.348 177.288 246.392 168.391C250.745 162.893 251.095 158.144 250.533 151.433C251.8 151.268 253.323 151.193 254.615 151.096Z" fill="#F7B2B2"/>
<path d="M245.359 151.978C246.17 151.978 245.835 151.844 246.42 152.328C247.696 155.457 245.125 159.03 242.955 161.062C239.972 161.776 237.63 162.047 235.034 160.134C233.199 158.068 232.805 157.405 231.738 154.923C234.219 154.251 237.043 154.078 239.601 153.612C241.71 153.228 243.322 152.675 245.359 151.978Z" fill="#CCC3C4"/>
<path d="M187.807 236.885C190.326 239.151 192.237 242.034 195.447 244.245C203.634 249.882 212.528 251.43 222.274 249.992C227.246 249.258 233.555 247.261 236.594 243.19C237.386 244.813 238.756 246.826 239.846 248.274C245.743 255.958 254.456 260.983 264.061 262.238C272.366 263.44 280.816 261.463 287.723 256.698C289.941 255.19 292.023 253.298 294.196 251.638C302.071 259.708 310.426 263.913 321.903 262.238C327.766 261.38 332.203 259.128 336.478 255.018C337.193 258.623 338.081 261.595 338.558 265.363C341.801 290.853 336.686 316.775 320.203 337.06C307.438 354.773 279.183 367.59 257.513 367.905C242.022 368.13 226.586 363.613 213.442 355.39C183.224 336.49 170.567 302.655 176.043 268.11C177.489 259.088 182.921 244.411 187.807 236.885Z" fill="#FCDD58"/>
<path d="M251.944 292.51C253.162 292.525 254.612 292.67 255.844 292.762C257.572 297.33 259.012 302.41 260.327 307.107C261.232 310.332 261.792 313.355 262.957 316.545C264.319 312.807 270.424 297.937 273.487 296.087C274.217 295.647 274.737 295.687 275.534 295.877C277.599 297.507 280.762 305.402 281.917 308.172C286.509 309 307.752 307.855 309.702 309.445C310.337 310.902 309.632 312.635 309.209 314.187C306.152 314.865 294.719 314.395 290.914 314.262C288.987 315.947 286.709 319.402 284.794 321.135C279.132 326.262 265.842 335.115 258.699 336.582C255.292 334.69 245.018 324.955 241.805 321.805C241.109 321.122 240.883 320.66 240.96 319.765C241.841 318.477 243.71 318.43 245.552 317.665C246.271 318.062 250.657 322.567 251.702 323.587C253.367 325.277 258.319 329.305 260.342 330.305C267.957 327.62 278.204 319.877 284.232 314.485C281.684 314.48 280.467 314.475 278.047 313.692C276.574 310.932 275.939 308.602 274.714 305.777C272.369 306.002 266.002 326.207 262.097 326.462C260.904 326.025 260.252 325.21 259.332 324.305C257.454 317.405 254.969 310.03 253.409 303.335C251.807 306.415 250.347 309.567 249.038 312.782C243.314 312.877 235.977 312.207 230.091 312.107C227.243 312.06 216.315 312.027 214.346 311.402C213.069 310.275 212.802 307.525 213.774 306.247C216.242 305.482 229.446 306.26 232.865 306.37L245.969 306.66C246.562 304.16 250.562 294.657 251.944 292.51Z" fill="#E2AD45"/>
<path d="M242.795 273.288C252.588 272.563 259.265 275.82 264.77 284.078C270.403 278.503 277.945 275.32 285.958 277.68C290.305 278.96 294.59 281.973 296.768 286.065C300.4 292.89 298.945 298.685 296.843 305.703C294.84 305.745 292.73 305.558 290.723 305.42C291.833 302.77 293.248 299.665 293.568 296.828C293.945 293.355 292.898 289.875 290.663 287.188C288.098 284.15 284.228 282.795 280.373 282.43C276.643 283.283 272.643 284.475 269.668 287.133C268.533 288.148 265.403 294.778 263.055 292.75C261.685 291.215 260.92 288.858 259.83 287.168C257.788 284.008 254.575 280.693 250.88 279.66C243.564 277.643 236.413 280.603 233.895 288.05C231.961 293.773 234.77 297.68 235.387 303.323L235.426 303.695C233.072 303.708 231.682 303.655 229.348 303.398C226.467 290.508 227.762 276.805 242.795 273.288Z" fill="#E2AD45"/>
<path d="M371.326 216.303C372.768 217.845 376.596 220.63 378.358 222.005C386.526 228.375 397.011 233.132 406.756 236.593C413.031 238.821 419.766 240.568 425.953 243.15C430.663 244.842 434.413 246.295 438.626 249.134C447.286 254.972 455.728 268.154 448.823 278.262C448.498 274.524 449.361 266.732 446.746 263.894C445.963 263.044 443.493 263.184 442.571 264.014C440.941 267.232 445.143 283.252 436.833 286.164C431.753 287.944 432.776 283.499 433.143 280.162C435.268 275.692 427.873 251.872 421.918 258.212C420.836 260.837 424.131 265.537 425.306 268.129C428.733 275.689 428.116 281.242 424.463 288.394C423.431 289.002 422.101 289.839 421.053 290.352C412.778 286.792 411.433 278.299 403.128 274.992C400.431 273.917 396.796 274.084 398.273 277.959C398.866 279.539 401.523 280.847 403.076 281.612C398.046 287.474 395.806 296.714 395.021 304.212C393.233 304.884 392.531 305.427 390.673 304.664C388.473 303.762 386.303 299.912 385.388 297.774C383.961 296.424 381.556 297.559 380.061 298.254C374.628 300.779 372.123 298.759 368.448 294.712C368.456 289.374 369.231 283.349 369.231 277.709C369.233 269.989 368.863 262.569 368.436 254.857C368.263 251.579 367.938 248.314 367.461 245.068C366.878 241.235 365.253 232.963 365.591 229.441C365.798 227.285 370.093 218.99 371.326 216.303Z" fill="#383738"/>
<path d="M425.952 243.15C430.662 244.843 434.412 246.295 438.624 249.134C447.284 254.972 455.727 268.155 448.822 278.262C448.497 274.525 449.359 266.732 446.744 263.895C445.962 263.045 443.492 263.185 442.569 264.015C440.939 267.232 445.142 283.252 436.832 286.165C431.752 287.945 432.774 283.5 433.142 280.162C435.267 275.692 427.872 251.872 421.917 258.212C420.834 260.837 424.129 265.537 425.304 268.13C428.732 275.69 428.114 281.242 424.462 288.395C423.429 289.002 422.099 289.84 421.052 290.352C412.777 286.792 411.432 278.3 403.127 274.992C400.429 273.917 396.794 274.085 398.272 277.96C398.864 279.54 401.522 280.847 403.074 281.612C398.044 287.475 395.804 296.715 395.019 304.212C393.232 304.885 392.529 305.427 390.672 304.665C388.472 303.762 386.302 299.912 385.387 297.775C385.384 294.435 384.644 291.677 385.082 288.022C385.932 280.912 389.512 277.212 394.819 272.94C394.762 269 393.612 265.37 394.719 261.38C396.142 256.065 400.739 251.505 406.019 250.015C410.087 248.865 414.202 249.961 418.302 249.877C419.007 249.643 419.812 248.03 420.322 247.418C421.879 245.542 424.024 244.698 425.792 243.28L425.952 243.15Z" fill="#636367"/>
<path d="M449.997 295.045C448.819 291.042 446.679 289.547 445.087 286.86C443.957 284.952 448.447 283.095 451.072 286.187C455.667 291.597 456.119 300.18 454.234 306.777C453.547 309.022 450.517 309.61 448.467 309.395C443.164 308.842 444.204 300.535 440.782 297.177C434.272 290.795 425.107 293.102 420.797 300.347C414.894 309.925 414.944 323.202 416.439 334.102C417.859 344.447 423.294 350.035 420.624 361.355C419.059 367.982 418.439 377.662 417.782 384.782C417.027 392.59 416.514 400.422 416.244 408.262C416.057 415.36 416.212 422.53 416.027 429.725C412.922 429.802 410.434 429.922 407.377 429.377C406.802 423.755 406.852 417.452 406.739 411.755C406.517 400.725 406.494 389.69 406.672 378.657C406.789 362.907 407.137 348.39 403.394 333.025C402.634 329.907 401.227 324.877 400.877 321.845C399.679 311.462 399.164 292.815 407.174 285.21L407.569 285.952C408.292 287.35 408.344 287.425 409.452 288.615C407.132 291.632 405.049 299.962 405.397 303.54L405.667 303.587C406.227 302.422 406.427 301.01 406.737 299.732C407.597 296.192 408.289 293.017 410.474 290.057L410.689 289.772C412.229 291.127 412.744 291.752 414.067 293.357C413.099 296.747 411.654 299.747 410.707 303.355C410.874 305.752 410.079 311.097 410.682 312.792L410.999 312.91C412.009 310.052 410.147 307.085 411.799 304.775C412.299 302.377 413.492 296.847 415.264 294.9C416.369 293.687 418.552 295.48 420.672 295.53C425.027 295.632 426.802 293.445 429.747 290.87C435.539 292.315 438.994 292.487 443.657 288.102C445.542 290.245 447.979 293.127 449.997 295.045Z" fill="#6B5345"/>
<path d="M411.728 319.305C409.775 313.828 409.603 309.108 410.708 303.355C410.875 305.753 410.08 311.098 410.683 312.793L411 312.91C412.01 310.053 410.148 307.085 411.8 304.775C411.82 306.273 411.613 308.008 411.653 309.508C411.743 312.853 411.84 315.955 411.728 319.305Z" fill="#383738"/>
<path d="M407.536 332.18C408.468 333.035 409.228 337.917 409.443 339.297C411.056 349.642 412.586 360.265 410.798 370.692L410.528 370.905L410.286 370.66C409.758 362.535 410.283 354.912 409.681 346.832C409.323 342.062 406.788 336.552 407.536 332.18Z" fill="#412F28"/>
<path d="M412.648 382.463L412.888 382.863C412.398 388.938 410.876 393.783 411.263 400.285C411.308 404.633 412.771 408.725 413.588 412.915C414.016 415.108 414.558 422.33 413.661 424.348C412.341 423.083 412.941 416.545 412.703 414.395C412.371 411.395 411.381 408.803 410.866 405.928C409.513 398.34 410.188 389.755 412.648 382.463Z" fill="black"/>
<path d="M320.567 390.268C321.322 390.248 322.979 390.988 323.774 391.24C331.382 393.663 345.537 399.698 346.984 408.673C347.309 410.63 346.839 412.635 345.679 414.243C343.904 416.683 341.029 416.898 338.282 417.343C335.622 411.375 334.454 407.448 328.119 403.76C326.839 403.275 323.124 400.655 321.812 401.53C317.017 404.73 323.854 408.16 325.267 409.238C330.142 412.958 333.21 415.505 330.355 421.668C325.66 427.35 319.164 424.628 313.749 421.775C305.592 417.475 298.344 414.913 289.457 412.54C279.854 409.978 279.989 404.665 282.657 396.34L283.007 396.445C291.78 399.003 303.385 398.055 311.827 394.77C314.792 393.618 317.787 391.838 320.567 390.268Z" fill="#E2AD45"/>
<path d="M169.645 394.956C170.571 394.821 171.794 395.676 172.805 396.111C177.5 398.128 183.56 399.843 188.613 400.443C196.378 401.366 200.967 399.536 208.087 397.768C208.216 399.988 208.525 403.811 207.274 405.753C204.646 409.836 200.568 413.103 197.219 416.618C194.521 419.451 191.684 422.203 188.943 424.998C186.03 427.886 182.371 430.621 178.102 430.343C175.591 430.181 174.447 429.621 172.792 427.843C170.296 423.143 170.562 419.083 173.733 414.523C175.543 412.086 178.898 407.523 173.492 406.906C170.951 406.616 167.097 414.023 166.309 416.076C165.839 417.303 164.231 423.421 163.589 423.808C160.759 425.536 153.385 423.001 152.134 420.223C147.651 410.271 161.76 399.348 169.645 394.956Z" fill="#E2AD45"/>
<path d="M92.2153 334.017C92.7938 333.985 93.6575 334.525 94.2595 334.805C99.6473 337.332 103.12 338.655 108.903 336.637L108.984 336.742C112.191 341 117.397 344.265 122.803 344.025C123.861 343.977 124.921 343.962 125.98 343.92C129.52 347.647 132.269 352.422 135.836 356.15C138.359 358.785 141.049 361.827 143.87 364.117C135.21 367.622 127.308 371.247 118.676 365.722C120.76 364.317 127.88 360.097 127.842 357.967C127.713 350.685 119.702 357.495 118.398 358.327C114.441 360.492 110.961 362.372 106.368 362.402C100.536 362.442 98.428 360.595 94.5745 356.805C99.1848 353.932 104.903 352.652 109.805 350.317C111.436 349.437 113.31 348.77 113.867 346.815C114.716 344.645 113.02 341.477 110.454 342.815C105.825 345.23 101.818 347.327 96.7508 348.87C91.683 350.415 87.0478 351.15 81.7585 349.997C79.2593 349.452 75.3258 347.8 73.8945 345.575C74.3343 342.895 89.3448 335.255 92.2153 334.017Z" fill="#383738"/>
<path d="M167.946 433.455C166.821 432.337 166.085 431.815 165.488 430.392L165.746 430.305C166.848 430.957 171.24 434.427 172.272 435.405C169.972 435.232 169.717 434.87 167.946 433.455Z" fill="#949590" fill-opacity="0.988235"/>
</svg>
